<svg width="36" height="40" viewBox="0 0 36 40" fill="none" xmlns="http://www.w3.org/2000/svg">
<path fill-rule="evenodd" clip-rule="evenodd" d="M21.1254 5.79233C18.9969 4.91067 16.6942 4.53049 14.3953 4.68115C12.0963 4.83185 9.86287 5.50935 7.86766 6.66127L5.85457 7.82352L3.53006 3.79737L5.54315 2.63512C8.15593 1.12666 11.0807 0.239417 14.0912 0.0421201C17.1017 -0.155212 20.1172 0.34266 22.9045 1.49719C25.6918 2.65175 28.1762 4.432 30.1655 6.70028C32.1545 8.96853 33.5954 11.664 34.3764 14.5782C35.1571 17.4923 35.2572 20.5471 34.6686 23.5061C34.0799 26.4651 32.8186 29.249 30.9819 31.6426C29.1452 34.0361 26.7827 35.9751 24.0769 37.3093C21.3711 38.6436 17.881 39.3377 15.3776 39.3377C12.8742 39.3377 11.4124 38.9622 9.49277 38.1673C7.62709 37.3945 5.93192 36.2619 4.50396 34.8339C3.07603 33.406 1.94336 31.7105 1.17055 29.8448C0.397776 27.9793 0 25.9796 0 23.9603C0 21.9409 0.397776 19.9412 1.17055 18.0755C1.94336 16.2099 3.07603 14.5147 4.50396 13.0867C5.93192 11.6588 7.62709 10.5261 9.49277 9.75332C11.3585 8.98052 13.3581 8.58277 15.3775 8.58277C17.3969 8.58277 19.3965 8.98052 21.2622 9.75332C23.1279 10.5261 24.8231 11.6588 26.251 13.0867C27.6789 14.5147 28.8115 16.2099 29.5843 18.0755C29.9169 18.8781 30.1798 19.7053 30.3718 20.5484C30.4655 18.948 30.3028 17.3385 29.8858 15.7814C29.2893 13.5561 28.1892 11.4977 26.6701 9.76559C25.1511 8.03344 23.2539 6.67396 21.1254 5.79233ZM6.09284 29.3356C6.35651 24.3377 10.4926 20.3663 15.5563 20.3663C20.4242 20.3663 24.4349 24.0366 24.972 28.7609C25.0858 28.5333 25.1917 28.3016 25.2893 28.0659C25.8285 26.7642 26.106 25.3692 26.106 23.9603C26.106 22.5514 25.8285 21.1563 25.2893 19.8546C24.7502 18.553 23.9599 17.3703 22.9637 16.3741C21.9675 15.3778 20.7847 14.5876 19.4831 14.0484C18.1815 13.5093 16.7864 13.2318 15.3775 13.2318C13.9686 13.2318 12.5735 13.5093 11.2719 14.0484C9.97026 14.5876 8.78755 15.3778 7.79131 16.3741C6.7951 17.3703 6.00484 18.553 5.46566 19.8546C4.92652 21.1563 4.64901 22.5514 4.64901 23.9603C4.64901 25.3692 4.92652 26.7642 5.46566 28.0659C5.64693 28.5034 5.85653 28.9275 6.09284 29.3356ZM20.3841 29.843C20.3841 32.5094 18.2226 34.6709 15.5563 34.6709C12.89 34.6709 10.7285 32.5094 10.7285 29.843C10.7285 27.1768 12.89 25.0153 15.5563 25.0153C18.2226 25.0153 20.3841 27.1768 20.3841 29.843Z" fill="#7C3AED"/>
</svg>
